<svg width="40" height="40" viewBox="0 0 40 40" fill="none" xmlns="http://www.w3.org/2000/svg">
<rect width="40" height="40" rx="8" fill="white" fill-opacity="0.1"/>
<path d="M26.7493 18.2553C27.6365 18.2553 28.2759 18.5972 28.6673 19.2808C29.0675 19.9644 29.1066 20.7904 28.7848 21.7589L28.1976 23.4964C27.8758 24.4649 27.2886 25.2909 26.4361 25.9746C25.5836 26.6582 24.7137 27 23.8264 27H11L15.6582 13H25.2878C26.1751 13 26.8145 13.3418 27.2059 14.0254C27.6061 14.7091 27.6452 15.5351 27.3234 16.5036L26.7362 18.2553H26.7493ZM17.6938 16.5178L17.1196 18.2553H22.7304C22.9566 18.2553 23.174 18.1699 23.3828 17.999C23.6003 17.8281 23.7482 17.6239 23.8264 17.3866C23.9047 17.1397 23.8917 16.9308 23.7873 16.7599C23.6916 16.589 23.535 16.5036 23.3176 16.5036H17.7068V16.5178H17.6938ZM25.2878 22.6277C25.3661 22.3808 25.3531 22.1767 25.2487 22.0153C25.153 21.8444 24.9964 21.7589 24.779 21.7589H15.9453L15.3712 23.4964H24.1918C24.418 23.4964 24.6354 23.411 24.8442 23.2401C25.0617 23.0692 25.2096 22.865 25.2878 22.6277Z" fill="white"/>
</svg>
