<svg width="40" height="40" viewBox="0 0 40 40" fill="none" xmlns="http://www.w3.org/2000/svg">
<rect width="40" height="40" rx="8" fill="white" fill-opacity="0.1"/>
<path d="M27.3034 13.3372C25.9344 12.711 24.4805 12.2547 22.9629 12C22.7719 12.329 22.5596 12.7747 22.411 13.1249C20.7969 12.8914 19.1944 12.8914 17.6025 13.1249C17.454 12.7747 17.2311 12.329 17.0507 12C15.5225 12.2547 14.0686 12.711 12.7091 13.3372C9.96053 17.3911 9.21766 21.3495 9.5891 25.2549C11.4144 26.5815 13.1761 27.388 14.907 27.9187C15.3315 27.3456 15.7136 26.73 16.0425 26.0827C15.4164 25.8492 14.8221 25.5627 14.249 25.2231C14.3976 25.117 14.5462 25.0003 14.6842 24.8835C18.1438 26.4648 21.8911 26.4648 25.3082 24.8835C25.4568 25.0003 25.5948 25.117 25.7434 25.2231C25.1703 25.5627 24.576 25.8492 23.9499 26.0827C24.2789 26.73 24.6609 27.3456 25.0854 27.9187C26.8152 27.388 28.5875 26.5815 30.4033 25.2549C30.8596 20.7341 29.6806 16.8075 27.3034 13.3372ZM16.5201 22.8459C15.4801 22.8459 14.6311 21.9014 14.6311 20.7447C14.6311 19.5879 15.4588 18.6434 16.5201 18.6434C17.5707 18.6434 18.4303 19.5879 18.4091 20.7447C18.4091 21.9014 17.5707 22.8459 16.5201 22.8459ZM23.4936 22.8459C22.4535 22.8459 21.6034 21.9014 21.6034 20.7447C21.6034 19.5879 22.4323 18.6434 23.4936 18.6434C24.5442 18.6434 25.4038 19.5879 25.3825 20.7447C25.3825 21.9014 24.5548 22.8459 23.4936 22.8459Z" fill="white"/>
</svg>
