<svg xmlns="http://www.w3.org/2000/svg" width="240" height="36" viewBox="0 0 240 36" fill="none">
  <path d="M40.1673 13.6275C42.4302 13.6275 44.0609 14.502 45.0592 16.251C46.0798 18 46.1796 20.1134 45.3587 22.5911L43.8612 27.0364C43.0403 29.5142 41.5428 31.6275 39.3686 33.3765C37.1944 35.1255 34.9758 36 32.7129 36H0L11.8805 0.182186H36.4401C38.703 0.182186 40.3337 1.05668 41.332 2.80567C42.3526 4.55466 42.4524 6.66802 41.6315 9.14575L40.134 13.6275H40.1673ZM17.0719 9.18219L15.6077 13.6275H29.9175C30.4943 13.6275 31.0489 13.4089 31.5814 12.9717C32.136 12.5344 32.5132 12.0121 32.7129 11.4049C32.9125 10.7733 32.8793 10.2389 32.613 9.80162C32.369 9.36437 31.9697 9.14575 31.415 9.14575H17.1052V9.18219H17.0719ZM36.4401 24.8138C36.6398 24.1822 36.6065 23.6599 36.3402 23.247C36.0962 22.8097 35.6969 22.5911 35.1422 22.5911H12.6126L11.1483 27.0364H33.6447C34.2215 27.0364 34.7761 26.8178 35.3086 26.3806C35.8633 25.9433 36.2404 25.4211 36.4401 24.8138Z" fill="white"/>
  <path d="M57.7038 27.0364H88.3534L85.3583 36H52.6787C50.4158 36 48.774 35.1255 47.7535 33.3765C46.7329 31.6275 46.6331 29.5142 47.454 27.0364L56.4059 0.182186H64.5925L61.6307 9.14575H61.5974L56.4059 24.8138C56.2062 25.4453 56.2284 25.9798 56.4725 26.417C56.7387 26.83 57.1491 27.0364 57.7038 27.0364Z" fill="white"/>
  <path d="M142.829 0.145749L139.834 9.14575H131.681V9.10931H109.184C108.608 9.10931 108.042 9.34008 107.487 9.80162C106.955 10.2389 106.589 10.7611 106.389 11.3684L105.69 13.4453H130.217L127.255 22.4089H102.728L101.996 24.5223C101.797 25.1538 101.819 25.6883 102.063 26.1255C102.329 26.5628 102.74 26.7814 103.294 26.7814H133.977L131.015 35.7085H98.3024C96.0394 35.7085 94.3977 34.8462 93.3771 33.1215C92.3566 31.3725 92.2567 29.2591 93.0776 26.7814L98.9679 9.10931C99.7888 6.63158 101.286 4.51822 103.461 2.76923C105.635 1.02024 107.853 0.145749 110.116 0.145749H142.829Z" fill="white"/>
  <path d="M157.604 8.96356C157.027 8.96356 156.461 9.19433 155.906 9.65587C155.374 10.0931 155.008 10.6154 154.808 11.2227C154.608 11.8543 154.631 12.3887 154.875 12.8259C155.141 13.2389 155.551 13.4453 156.106 13.4453H178.602C180.865 13.4453 182.496 14.3198 183.494 16.0688C184.515 17.8178 184.615 19.9312 183.794 22.4089L182.296 26.8907C181.475 29.3684 179.978 31.4818 177.804 33.2308C175.629 34.9798 173.411 35.8543 171.148 35.8543H138.435L141.397 26.8907H172.113C172.69 26.8907 173.244 26.6721 173.777 26.2348C174.309 25.7976 174.675 25.2753 174.875 24.668C175.075 24.0364 175.042 23.502 174.775 23.0648C174.509 22.6275 174.099 22.4089 173.544 22.4089H151.081C148.818 22.4089 147.176 21.5344 146.156 19.7854C145.157 18.0364 145.069 15.9231 145.889 13.4453L147.387 8.96356C148.208 6.51012 149.705 4.40891 151.88 2.65992C154.076 0.88664 156.295 0 158.535 0H191.248L188.253 8.96356H157.604Z" fill="white"/>
  <path d="M206.355 8.96356C205.778 8.96356 205.213 9.19433 204.658 9.65587C204.126 10.0931 203.76 10.6154 203.56 11.2227C203.36 11.8543 203.382 12.3887 203.626 12.8259C203.893 13.2389 204.303 13.4453 204.858 13.4453H227.354C229.617 13.4453 231.248 14.3198 232.246 16.0688C233.267 17.8178 233.366 19.9312 232.546 22.4089L231.048 26.8907C230.227 29.3684 228.73 31.4818 226.555 33.2308C224.381 34.9798 222.163 35.8543 219.9 35.8543H187.187L190.149 26.8907H220.865C221.442 26.8907 221.996 26.6721 222.529 26.2348C223.061 25.7976 223.427 25.2753 223.627 24.668C223.827 24.0364 223.793 23.502 223.527 23.0648C223.261 22.6275 222.85 22.4089 222.296 22.4089H199.833C197.57 22.4089 195.928 21.5344 194.907 19.7854C193.909 18.0364 193.82 15.9231 194.641 13.4453L196.139 8.96356C196.96 6.51012 198.457 4.40891 200.631 2.65992C202.828 0.88664 205.046 0 207.287 0H240L237.005 8.96356H206.355Z" fill="white"/>
</svg>
