<svg width="42" height="32" viewBox="0 0 42 32" fill="none" xmlns="http://www.w3.org/2000/svg">
<path d="M36.7483 12.0122C38.8186 12.0122 40.3104 12.7935 41.2238 14.3561C42.1575 15.9186 42.2488 17.8067 41.4978 20.0203L40.1278 23.9919C39.3768 26.2055 38.0067 28.0936 36.0176 29.6562C34.0284 31.2187 31.9987 32 29.9284 32H0L10.8692 0H33.3383C35.4086 0 36.9005 0.781282 37.8139 2.34385C38.7475 3.90641 38.8389 5.79451 38.0879 8.00814L36.7178 12.0122H36.7483ZM15.6188 8.04069L14.2791 12.0122H27.3709C27.8986 12.0122 28.4061 11.8169 28.8932 11.4262C29.4006 11.0356 29.7457 10.569 29.9284 10.0265C30.111 9.46219 30.0806 8.98474 29.837 8.5941C29.6138 8.20346 29.2484 8.00814 28.741 8.00814H15.6492V8.04069H15.6188ZM33.3383 22.0061C33.521 21.4418 33.4905 20.9752 33.247 20.6063C33.0237 20.2157 32.6584 20.0203 32.1509 20.0203H11.539L10.1994 23.9919H30.7809C31.3086 23.9919 31.816 23.7965 32.3032 23.4059C32.8106 23.0153 33.1556 22.5487 33.3383 22.0061Z" fill="white"/>
</svg>
